<mxfile host="app.diagrams.net" modified="2021-06-24T16:34:46.306Z" agent="5.0 (Windows NT 10.0; Win64; x64) AppleWebKit/537.36 (KHTML, like Gecko) Chrome/91.0.4472.114 Safari/537.36" etag="NN6owM49CX6_KNDeuY6u" version="14.8.0" type="github">
  <diagram id="C5RBs43oDa-KdzZeNtuy" name="Page-1">
    <mxGraphModel dx="1022" dy="436" grid="1" gridSize="10" guides="1" tooltips="1" connect="1" arrows="1" fold="1" page="1" pageScale="1" pageWidth="827" pageHeight="1169" math="0" shadow="0">
      <root>
        <mxCell id="WIyWlLk6GJQsqaUBKTNV-0" />
        <mxCell id="WIyWlLk6GJQsqaUBKTNV-1" parent="WIyWlLk6GJQsqaUBKTNV-0" />
        <mxCell id="YE1iWcQNIuacARqVsn8R-0" value="Начало" style="ellipse;whiteSpace=wrap;html=1;" vertex="1" parent="WIyWlLk6GJQsqaUBKTNV-1">
          <mxGeometry x="270" y="220" width="120" height="80" as="geometry" />
        </mxCell>
        <mxCell id="YE1iWcQNIuacARqVsn8R-1" value="" style="endArrow=none;html=1;" edge="1" parent="WIyWlLk6GJQsqaUBKTNV-1">
          <mxGeometry width="50" height="50" relative="1" as="geometry">
            <mxPoint x="329.5" y="350" as="sourcePoint" />
            <mxPoint x="329.5" y="300" as="targetPoint" />
          </mxGeometry>
        </mxCell>
        <mxCell id="YE1iWcQNIuacARqVsn8R-2" value="Введення: N" style="shape=parallelogram;perimeter=parallelogramPerimeter;whiteSpace=wrap;html=1;fixedSize=1;" vertex="1" parent="WIyWlLk6GJQsqaUBKTNV-1">
          <mxGeometry x="270" y="320" width="120" height="60" as="geometry" />
        </mxCell>
        <mxCell id="YE1iWcQNIuacARqVsn8R-4" value="max:=arr[0],&lt;br&gt;indexOfMax:=0" style="rounded=0;whiteSpace=wrap;html=1;" vertex="1" parent="WIyWlLk6GJQsqaUBKTNV-1">
          <mxGeometry x="270" y="410" width="120" height="60" as="geometry" />
        </mxCell>
        <mxCell id="YE1iWcQNIuacARqVsn8R-6" value="" style="endArrow=none;html=1;entryX=0.5;entryY=1;entryDx=0;entryDy=0;" edge="1" parent="WIyWlLk6GJQsqaUBKTNV-1" target="YE1iWcQNIuacARqVsn8R-2">
          <mxGeometry width="50" height="50" relative="1" as="geometry">
            <mxPoint x="330" y="410" as="sourcePoint" />
            <mxPoint x="330" y="390" as="targetPoint" />
          </mxGeometry>
        </mxCell>
        <mxCell id="YE1iWcQNIuacARqVsn8R-7" value="" style="endArrow=none;html=1;" edge="1" parent="WIyWlLk6GJQsqaUBKTNV-1">
          <mxGeometry width="50" height="50" relative="1" as="geometry">
            <mxPoint x="330" y="520" as="sourcePoint" />
            <mxPoint x="329.5" y="470" as="targetPoint" />
          </mxGeometry>
        </mxCell>
        <mxCell id="YE1iWcQNIuacARqVsn8R-8" value="Поч.циклу 1&lt;br&gt;i:=1 to N" style="shape=or;whiteSpace=wrap;html=1;direction=north;" vertex="1" parent="WIyWlLk6GJQsqaUBKTNV-1">
          <mxGeometry x="290" y="510" width="80" height="60" as="geometry" />
        </mxCell>
        <mxCell id="YE1iWcQNIuacARqVsn8R-9" value="" style="endArrow=none;html=1;" edge="1" parent="WIyWlLk6GJQsqaUBKTNV-1">
          <mxGeometry width="50" height="50" relative="1" as="geometry">
            <mxPoint x="330" y="620" as="sourcePoint" />
            <mxPoint x="330" y="570" as="targetPoint" />
          </mxGeometry>
        </mxCell>
        <mxCell id="YE1iWcQNIuacARqVsn8R-10" value="arr[i] &amp;gt; max" style="rhombus;whiteSpace=wrap;html=1;direction=east;rotation=0;" vertex="1" parent="WIyWlLk6GJQsqaUBKTNV-1">
          <mxGeometry x="290" y="600" width="80" height="70" as="geometry" />
        </mxCell>
        <mxCell id="YE1iWcQNIuacARqVsn8R-11" value="Н" style="text;html=1;strokeColor=none;fillColor=none;align=center;verticalAlign=middle;whiteSpace=wrap;rounded=0;" vertex="1" parent="WIyWlLk6GJQsqaUBKTNV-1">
          <mxGeometry x="340" y="600" width="40" height="20" as="geometry" />
        </mxCell>
        <mxCell id="YE1iWcQNIuacARqVsn8R-12" value="Д" style="text;html=1;align=center;verticalAlign=middle;resizable=0;points=[];autosize=1;strokeColor=none;" vertex="1" parent="WIyWlLk6GJQsqaUBKTNV-1">
          <mxGeometry x="350" y="650" width="20" height="20" as="geometry" />
        </mxCell>
        <mxCell id="YE1iWcQNIuacARqVsn8R-13" value="" style="endArrow=none;html=1;" edge="1" parent="WIyWlLk6GJQsqaUBKTNV-1">
          <mxGeometry width="50" height="50" relative="1" as="geometry">
            <mxPoint x="330" y="710" as="sourcePoint" />
            <mxPoint x="329.5" y="670" as="targetPoint" />
          </mxGeometry>
        </mxCell>
        <mxCell id="YE1iWcQNIuacARqVsn8R-14" value="max:=arr[i]&lt;br&gt;indexOfMax:=i" style="shape=parallelogram;perimeter=parallelogramPerimeter;whiteSpace=wrap;html=1;fixedSize=1;" vertex="1" parent="WIyWlLk6GJQsqaUBKTNV-1">
          <mxGeometry x="270" y="710" width="120" height="60" as="geometry" />
        </mxCell>
        <mxCell id="YE1iWcQNIuacARqVsn8R-15" value="" style="endArrow=none;html=1;" edge="1" parent="WIyWlLk6GJQsqaUBKTNV-1">
          <mxGeometry width="50" height="50" relative="1" as="geometry">
            <mxPoint x="330" y="820" as="sourcePoint" />
            <mxPoint x="329.5" y="770" as="targetPoint" />
          </mxGeometry>
        </mxCell>
        <mxCell id="YE1iWcQNIuacARqVsn8R-16" value="" style="endArrow=none;html=1;" edge="1" parent="WIyWlLk6GJQsqaUBKTNV-1">
          <mxGeometry width="50" height="50" relative="1" as="geometry">
            <mxPoint x="370" y="634.5" as="sourcePoint" />
            <mxPoint x="480" y="635" as="targetPoint" />
          </mxGeometry>
        </mxCell>
        <mxCell id="YE1iWcQNIuacARqVsn8R-17" value="" style="endArrow=none;html=1;" edge="1" parent="WIyWlLk6GJQsqaUBKTNV-1">
          <mxGeometry width="50" height="50" relative="1" as="geometry">
            <mxPoint x="480" y="840" as="sourcePoint" />
            <mxPoint x="480" y="634" as="targetPoint" />
          </mxGeometry>
        </mxCell>
        <mxCell id="YE1iWcQNIuacARqVsn8R-18" value="Кiн.циклу 1" style="shape=or;whiteSpace=wrap;html=1;direction=south;" vertex="1" parent="WIyWlLk6GJQsqaUBKTNV-1">
          <mxGeometry x="290" y="820" width="80" height="60" as="geometry" />
        </mxCell>
        <mxCell id="YE1iWcQNIuacARqVsn8R-19" value="" style="endArrow=classic;html=1;" edge="1" parent="WIyWlLk6GJQsqaUBKTNV-1">
          <mxGeometry width="50" height="50" relative="1" as="geometry">
            <mxPoint x="480" y="840" as="sourcePoint" />
            <mxPoint x="370" y="840" as="targetPoint" />
          </mxGeometry>
        </mxCell>
        <mxCell id="YE1iWcQNIuacARqVsn8R-20" value="" style="endArrow=none;html=1;" edge="1" parent="WIyWlLk6GJQsqaUBKTNV-1">
          <mxGeometry width="50" height="50" relative="1" as="geometry">
            <mxPoint x="330" y="930" as="sourcePoint" />
            <mxPoint x="329.5" y="880" as="targetPoint" />
          </mxGeometry>
        </mxCell>
        <mxCell id="YE1iWcQNIuacARqVsn8R-22" value="" style="endArrow=none;html=1;" edge="1" parent="WIyWlLk6GJQsqaUBKTNV-1">
          <mxGeometry width="50" height="50" relative="1" as="geometry">
            <mxPoint x="329.5" y="1050" as="sourcePoint" />
            <mxPoint x="329.5" y="990" as="targetPoint" />
          </mxGeometry>
        </mxCell>
        <mxCell id="YE1iWcQNIuacARqVsn8R-24" value="&lt;span style=&quot;color: rgb(0, 0, 0); font-family: helvetica; font-size: 12px; font-style: normal; font-weight: 400; letter-spacing: normal; text-align: center; text-indent: 0px; text-transform: none; word-spacing: 0px; background-color: rgb(248, 249, 250); display: inline; float: none;&quot;&gt;Д&lt;/span&gt;" style="text;whiteSpace=wrap;html=1;" vertex="1" parent="WIyWlLk6GJQsqaUBKTNV-1">
          <mxGeometry x="353" y="966" width="30" height="30" as="geometry" />
        </mxCell>
        <mxCell id="YE1iWcQNIuacARqVsn8R-28" value="Н" style="text;html=1;align=center;verticalAlign=middle;resizable=0;points=[];autosize=1;strokeColor=none;" vertex="1" parent="WIyWlLk6GJQsqaUBKTNV-1">
          <mxGeometry x="349" y="920" width="20" height="20" as="geometry" />
        </mxCell>
        <mxCell id="YE1iWcQNIuacARqVsn8R-29" value="Поч. циклу 2&lt;br&gt;i:=1 to N" style="shape=or;whiteSpace=wrap;html=1;direction=south;" vertex="1" parent="WIyWlLk6GJQsqaUBKTNV-1">
          <mxGeometry x="290" y="1050" width="80" height="60" as="geometry" />
        </mxCell>
        <mxCell id="YE1iWcQNIuacARqVsn8R-30" value="" style="endArrow=none;html=1;" edge="1" parent="WIyWlLk6GJQsqaUBKTNV-1">
          <mxGeometry width="50" height="50" relative="1" as="geometry">
            <mxPoint x="329.5" y="1170" as="sourcePoint" />
            <mxPoint x="329.5" y="1110" as="targetPoint" />
          </mxGeometry>
        </mxCell>
        <mxCell id="YE1iWcQNIuacARqVsn8R-31" value="Поч. циклу 3&lt;br&gt;j:=i+1 to N" style="shape=or;whiteSpace=wrap;html=1;direction=south;" vertex="1" parent="WIyWlLk6GJQsqaUBKTNV-1">
          <mxGeometry x="289" y="1160" width="80" height="60" as="geometry" />
        </mxCell>
        <mxCell id="YE1iWcQNIuacARqVsn8R-33" value="" style="endArrow=none;html=1;entryX=1;entryY=0.5;entryDx=0;entryDy=0;entryPerimeter=0;" edge="1" parent="WIyWlLk6GJQsqaUBKTNV-1" target="YE1iWcQNIuacARqVsn8R-31">
          <mxGeometry width="50" height="50" relative="1" as="geometry">
            <mxPoint x="329.5" y="1280" as="sourcePoint" />
            <mxPoint x="329.5" y="1252.659863237109" as="targetPoint" />
          </mxGeometry>
        </mxCell>
        <mxCell id="YE1iWcQNIuacARqVsn8R-35" value="arr[i] &amp;gt; arr[j]&lt;br&gt;&amp;amp;&amp;amp; arr[j] &amp;lt; 0" style="rhombus;whiteSpace=wrap;html=1;direction=east;rotation=0;" vertex="1" parent="WIyWlLk6GJQsqaUBKTNV-1">
          <mxGeometry x="275" y="1260" width="110" height="70" as="geometry" />
        </mxCell>
        <mxCell id="YE1iWcQNIuacARqVsn8R-36" value="Н" style="text;html=1;align=center;verticalAlign=middle;resizable=0;points=[];autosize=1;strokeColor=none;" vertex="1" parent="WIyWlLk6GJQsqaUBKTNV-1">
          <mxGeometry x="350" y="1260" width="20" height="20" as="geometry" />
        </mxCell>
        <mxCell id="YE1iWcQNIuacARqVsn8R-37" value="Д" style="text;html=1;align=center;verticalAlign=middle;resizable=0;points=[];autosize=1;strokeColor=none;" vertex="1" parent="WIyWlLk6GJQsqaUBKTNV-1">
          <mxGeometry x="350" y="1310" width="20" height="20" as="geometry" />
        </mxCell>
        <mxCell id="YE1iWcQNIuacARqVsn8R-38" value="" style="endArrow=none;html=1;" edge="1" parent="WIyWlLk6GJQsqaUBKTNV-1">
          <mxGeometry width="50" height="50" relative="1" as="geometry">
            <mxPoint x="330" y="1390" as="sourcePoint" />
            <mxPoint x="329.5" y="1330" as="targetPoint" />
          </mxGeometry>
        </mxCell>
        <mxCell id="YE1iWcQNIuacARqVsn8R-39" value="x:=arr[i]&lt;br&gt;arr[i]:=arr[j]&lt;br&gt;arr[j]:=x" style="rounded=0;whiteSpace=wrap;html=1;" vertex="1" parent="WIyWlLk6GJQsqaUBKTNV-1">
          <mxGeometry x="270" y="1390" width="120" height="60" as="geometry" />
        </mxCell>
        <mxCell id="YE1iWcQNIuacARqVsn8R-40" value="indexOfMax % 2&lt;br&gt;== 0" style="rhombus;whiteSpace=wrap;html=1;direction=east;rotation=0;" vertex="1" parent="WIyWlLk6GJQsqaUBKTNV-1">
          <mxGeometry x="275" y="920" width="110" height="70" as="geometry" />
        </mxCell>
        <mxCell id="YE1iWcQNIuacARqVsn8R-41" value="" style="endArrow=none;html=1;" edge="1" parent="WIyWlLk6GJQsqaUBKTNV-1">
          <mxGeometry width="50" height="50" relative="1" as="geometry">
            <mxPoint x="328.5" y="1520" as="sourcePoint" />
            <mxPoint x="328.5" y="1450" as="targetPoint" />
          </mxGeometry>
        </mxCell>
        <mxCell id="YE1iWcQNIuacARqVsn8R-42" value="arr[i] &amp;gt; arr[j]&lt;br&gt;&amp;amp;&amp;amp; arr[j] &amp;lt; 0" style="rhombus;whiteSpace=wrap;html=1;direction=east;rotation=0;" vertex="1" parent="WIyWlLk6GJQsqaUBKTNV-1">
          <mxGeometry x="273" y="1510" width="110" height="70" as="geometry" />
        </mxCell>
        <mxCell id="YE1iWcQNIuacARqVsn8R-43" value="Н" style="text;html=1;align=center;verticalAlign=middle;resizable=0;points=[];autosize=1;strokeColor=none;" vertex="1" parent="WIyWlLk6GJQsqaUBKTNV-1">
          <mxGeometry x="350" y="1510" width="20" height="20" as="geometry" />
        </mxCell>
        <mxCell id="YE1iWcQNIuacARqVsn8R-44" value="Д" style="text;html=1;align=center;verticalAlign=middle;resizable=0;points=[];autosize=1;strokeColor=none;" vertex="1" parent="WIyWlLk6GJQsqaUBKTNV-1">
          <mxGeometry x="350" y="1560" width="20" height="20" as="geometry" />
        </mxCell>
      </root>
    </mxGraphModel>
  </diagram>
</mxfile>
